<svg width="734" height="668" viewBox="0 0 734 668" fill="none" xmlns="http://www.w3.org/2000/svg">
<path d="M317.245 248.557C316.577 223.125 312.919 103.943 312.868 103.943C170.784 109.191 62.95 134.799 62.95 165.6C62.95 189.709 130.179 276.108 225.877 257.919V254.855C254.023 251.812 284.771 249.656 317.245 248.557Z" fill="#AF9583"/>
<path d="M225.877 254.855C235.119 253.856 244.641 252.952 254.413 252.151C254.413 252.152 254.413 252.151 254.413 252.152C244.64 252.953 235.119 253.856 225.877 254.855Z" fill="#D4C9BC"/>
<path d="M225.877 254.855V221.105C173.599 215.452 130.289 206.755 101.495 196.155C141.233 181.519 208.625 170.508 289.101 166.133C291.491 173.452 296.657 179.516 303.356 183.083C302.927 184.379 302.496 185.691 302.011 187.017C296.197 202.933 286.649 214.459 272.573 226.643L270.663 228.296C262.72 235.171 257.401 243.472 254.413 252.151C244.641 252.952 235.119 253.856 225.877 254.855" fill="#998375"/>
<path d="M275.417 178.033H193.441C191.595 178.033 190.097 176.536 190.097 174.691V72.2027C190.097 70.356 191.595 68.86 193.441 68.86H275.417C277.263 68.86 278.76 70.356 278.76 72.2027V174.691C278.76 176.536 277.263 178.033 275.417 178.033" fill="#0A0B0B"/>
<path d="M253.544 98.3881V81.5494C244.243 81.5494 236.704 89.0881 236.704 98.3881C236.704 107.688 244.243 115.228 253.544 115.228C262.844 115.228 270.384 107.688 270.384 98.3881H253.544Z" fill="#F7E9D9"/>
<path d="M271.121 93.8667C271.121 85.92 264.679 79.4774 256.732 79.4774V93.8667H271.121Z" fill="#E39600"/>
<path d="M228.247 86.064H201.217C200.848 86.064 200.551 85.7667 200.551 85.3974C200.551 85.0294 200.848 84.7307 201.217 84.7307H228.247C228.615 84.7307 228.913 85.0294 228.913 85.3974C228.913 85.7667 228.615 86.064 228.247 86.064Z" fill="#F7E9D9"/>
<path d="M257.605 161.977H235.051C234.681 161.977 234.384 161.679 234.384 161.311C234.384 160.943 234.681 160.644 235.051 160.644H257.605C257.973 160.644 258.272 160.943 258.272 161.311C258.272 161.679 257.973 161.977 257.605 161.977Z" fill="#F7E9D9"/>
<path d="M225.457 102.593H201.217C200.848 102.593 200.551 102.295 200.551 101.927C200.551 101.557 200.848 101.26 201.217 101.26H225.457C225.825 101.26 226.124 101.557 226.124 101.927C226.124 102.295 225.825 102.593 225.457 102.593Z" fill="#F7E9D9"/>
<path d="M232.197 115.895H201.217C200.848 115.895 200.551 115.597 200.551 115.228C200.551 114.86 200.848 114.561 201.217 114.561H232.197C232.567 114.561 232.864 114.86 232.864 115.228C232.864 115.597 232.567 115.895 232.197 115.895Z" fill="#F7E9D9"/>
<path d="M257.605 129.329H201.217C200.848 129.329 200.551 129.031 200.551 128.663C200.551 128.295 200.848 127.996 201.217 127.996H257.605C257.973 127.996 258.272 128.295 258.272 128.663C258.272 129.031 257.973 129.329 257.605 129.329Z" fill="#F7E9D9"/>
<path d="M257.605 143.851H201.217C200.848 143.851 200.551 143.553 200.551 143.184C200.551 142.816 200.848 142.517 201.217 142.517H257.605C257.973 142.517 258.272 142.816 258.272 143.184C258.272 143.553 257.973 143.851 257.605 143.851Z" fill="#F7E9D9"/>
<path d="M143.812 238.248C143.285 238.248 142.76 238.041 142.368 237.632C141.604 236.833 141.631 235.568 142.428 234.804L205.785 174.079C206.328 173.56 207.057 173.307 207.809 173.381C208.555 173.457 209.227 173.853 209.653 174.468L222.939 193.697L272.228 130.401C272.797 129.672 273.715 129.308 274.631 129.445C275.541 129.585 276.309 130.209 276.635 131.073L284.968 153.279L331.833 95.6854C332.529 94.8307 333.791 94.7 334.647 95.3973C335.503 96.0947 335.633 97.3547 334.936 98.2107L286.48 157.759C285.904 158.467 284.992 158.815 284.085 158.667C283.185 158.519 282.428 157.896 282.108 157.041L273.797 134.897L224.884 197.709C224.385 198.349 223.584 198.708 222.796 198.693C221.987 198.671 221.228 198.259 220.768 197.592L207.329 178.141L145.196 237.692C144.808 238.063 144.309 238.248 143.812 238.248Z" fill="#0056D7"/>
<path d="M334.42 112.56L334.18 112.545C333.084 112.415 332.301 111.419 332.432 110.323L334.175 95.7587L320.059 100.388C319.012 100.732 317.879 100.161 317.535 99.112C317.191 98.0613 317.763 96.9321 318.812 96.5881L335.084 91.2507C335.917 90.976 336.82 91.1454 337.499 91.7027C338.177 92.2587 338.52 93.1093 338.416 93.9813L336.404 110.797C336.283 111.815 335.419 112.56 334.42 112.56" fill="#0056D7"/>
<path d="M214.771 196.621H160.751C158.717 196.621 157.068 194.972 157.068 192.94V145.779C157.068 143.745 158.717 142.097 160.751 142.097H214.771C216.804 142.097 218.452 143.745 218.452 145.779V192.94C218.452 194.972 216.804 196.621 214.771 196.621" fill="#0056D7"/>
<path d="M160.751 142.764C159.088 142.764 157.735 144.116 157.735 145.779V192.94C157.735 194.603 159.088 195.955 160.751 195.955H214.771C216.433 195.955 217.785 194.603 217.785 192.94V145.779C217.785 144.116 216.433 142.764 214.771 142.764H160.751ZM214.771 197.288H160.751C158.353 197.288 156.401 195.337 156.401 192.94V145.779C156.401 143.381 158.353 141.431 160.751 141.431H214.771C217.168 141.431 219.119 143.381 219.119 145.779V192.94C219.119 195.337 217.168 197.288 214.771 197.288Z" fill="#0056D7"/>
<path d="M205.567 181.781H170.46C169.344 181.781 168.44 180.877 168.44 179.763V156.077C168.44 154.963 169.344 154.057 170.46 154.057H205.567C206.681 154.057 207.585 154.963 207.585 156.077V179.763C207.585 180.877 206.681 181.781 205.567 181.781Z" fill="#F7E9D9"/>
<path d="M168.441 183.421C168.251 183.421 168.06 183.34 167.929 183.183C167.693 182.9 167.729 182.48 168.012 182.244L187.08 166.285C187.324 166.081 187.677 166.076 187.927 166.277L207.5 182.051C207.785 182.281 207.831 182.701 207.6 182.988C207.369 183.275 206.949 183.321 206.663 183.088L187.516 167.659L168.868 183.265C168.744 183.371 168.591 183.421 168.441 183.421" fill="#0056D7"/>
<path d="M168.44 154.68L183.149 166.388C185.845 168.533 189.668 168.524 192.353 166.365L207.081 154.524" fill="#F7E9D9"/>
<path d="M187.737 168.669C185.973 168.669 184.209 168.084 182.735 166.909L168.025 155.201C167.737 154.972 167.689 154.553 167.919 154.264C168.147 153.976 168.565 153.928 168.856 154.159L183.565 165.867C186.033 167.833 189.476 167.823 191.936 165.845L206.663 154.004C206.949 153.773 207.369 153.82 207.6 154.107C207.831 154.393 207.785 154.813 207.499 155.044L192.772 166.885C191.291 168.075 189.515 168.669 187.737 168.669" fill="#0056D7"/>
<path d="M670.383 165.6C670.383 139.149 590.863 116.528 478.42 107.343C477.965 107.307 477.708 213.073 477.737 244.965C510.779 247.639 540.988 251.472 567.207 256.22C629.967 240.415 670.383 184.292 670.383 165.6" fill="#AF9583"/>
<path d="M544.335 252.461C544.324 252.46 544.316 252.459 544.305 252.457C544.316 252.459 544.324 252.46 544.335 252.461ZM544.168 252.437C544.157 252.436 544.151 252.435 544.14 252.433C544.151 252.435 544.157 252.436 544.168 252.437ZM544.004 252.412C543.988 252.411 543.971 252.408 543.955 252.405C543.971 252.408 543.988 252.411 544.004 252.412ZM543.844 252.389C543.807 252.384 543.764 252.377 543.727 252.372C543.765 252.377 543.804 252.383 543.844 252.389ZM543.688 252.365C524.403 249.513 503.429 247.115 481.137 245.247L481.136 245.245C503.431 247.113 524.403 249.513 543.688 252.365" fill="#D4C9BC"/>
<path d="M553.3 253.848C550.355 253.375 547.365 252.912 544.335 252.461C544.324 252.46 544.316 252.459 544.305 252.457C544.26 252.451 544.213 252.444 544.168 252.437C544.157 252.436 544.151 252.435 544.14 252.433C544.095 252.427 544.049 252.419 544.004 252.412C543.988 252.411 543.971 252.408 543.955 252.405C543.916 252.4 543.883 252.395 543.844 252.389C543.804 252.383 543.765 252.377 543.727 252.372C543.712 252.369 543.701 252.368 543.688 252.365C524.403 249.513 503.431 247.113 481.136 245.245C480.275 242.415 479.181 239.685 477.876 237.065C477.992 204.259 478.179 174.337 478.42 174.337C538.485 179.244 589.153 187.985 623.325 199.096C604.793 205.12 581.408 210.448 554.307 214.845C553.759 214.933 553.428 231.504 553.3 253.848" fill="#998375"/>
<path d="M567.144 204.192H519.365C517.52 204.192 516.023 202.695 516.023 200.848V153.069C516.023 151.223 517.52 149.725 519.365 149.725H567.144C568.991 149.725 570.488 151.223 570.488 153.069V200.848C570.488 202.695 568.991 204.192 567.144 204.192Z" fill="#0A0B0B"/>
<path d="M544.805 174.531H545.472V191.343C549.875 191.139 554.103 189.103 557.02 185.719C559.973 182.292 561.325 177.903 560.823 173.36C560.007 165.96 554.043 159.996 546.643 159.179C542.095 158.675 537.701 160.029 534.272 162.992C530.888 165.915 528.855 170.148 528.695 174.607L544.805 174.531ZM545.423 192.64C545.092 192.64 544.78 192.513 544.537 192.281C544.284 192.036 544.139 191.695 544.139 191.343V175.864H528.631C528.288 175.864 527.955 175.723 527.715 175.475C527.475 175.225 527.349 174.901 527.361 174.559C527.535 169.731 529.737 165.147 533.401 161.983C537.113 158.776 541.865 157.309 546.789 157.853C554.805 158.739 561.264 165.199 562.148 173.213C562.692 178.128 561.229 182.879 558.028 186.589C554.871 190.252 550.295 192.457 545.472 192.639L545.423 192.64" fill="#F7E9D9"/>
<path d="M524.292 179.047L524.225 179.103C524.591 188.085 531.916 195.411 540.9 195.777L540.956 179.103L524.292 179.047ZM540.901 197.111L540.847 197.109C531.173 196.715 523.287 188.829 522.892 179.157C522.876 178.781 523.013 178.423 523.277 178.147C523.541 177.872 523.912 177.713 524.292 177.713H540.899C541.665 177.713 542.289 178.336 542.289 179.103V195.711C542.289 196.089 542.132 196.459 541.857 196.723C541.595 196.973 541.257 197.111 540.901 197.111" fill="#E39600"/>
<path d="M643.163 161.021H566.615C564.583 161.021 562.932 159.372 562.932 157.339V87.816C562.932 85.7827 564.583 84.1333 566.615 84.1333H643.163C645.195 84.1333 646.845 85.7827 646.845 87.816V157.339C646.845 159.372 645.195 161.021 643.163 161.021Z" fill="#0056D7"/>
<path d="M566.615 84.8C564.952 84.8 563.599 86.1534 563.599 87.816V157.339C563.599 159.001 564.952 160.355 566.615 160.355H643.163C644.825 160.355 646.179 159.001 646.179 157.339V87.816C646.179 86.1534 644.825 84.8 643.163 84.8H566.615ZM643.163 161.688H566.615C564.216 161.688 562.265 159.736 562.265 157.339V87.816C562.265 85.4187 564.216 83.4667 566.615 83.4667H643.163C645.561 83.4667 647.512 85.4187 647.512 87.816V157.339C647.512 159.736 645.561 161.688 643.163 161.688Z" fill="#0056D7"/>
<path d="M629.432 122.577C629.432 136.133 618.444 147.121 604.889 147.121C591.333 147.121 580.345 136.133 580.345 122.577C580.345 109.021 591.333 98.0334 604.889 98.0334C618.444 98.0334 629.432 109.021 629.432 122.577Z" fill="#F7E9D9"/>
<path d="M613.329 123.244H604.223V108.896C604.223 108.527 604.521 108.229 604.889 108.229C605.257 108.229 605.556 108.527 605.556 108.896V121.911H613.329C613.697 121.911 613.996 122.209 613.996 122.577C613.996 122.945 613.697 123.244 613.329 123.244" fill="#0056D7"/>
<path d="M504.812 172.868C504.812 182.343 497.133 190.024 487.657 190.024C478.184 190.024 470.503 182.343 470.503 172.868C470.503 163.395 478.184 155.713 487.657 155.713C497.133 155.713 504.812 163.395 504.812 172.868Z" fill="#E39600"/>
<path d="M487.311 177.721C486.895 177.721 486.479 177.564 486.161 177.248L480.039 171.124C479.779 170.864 479.779 170.443 480.039 170.181C480.3 169.921 480.721 169.921 480.981 170.181L487.104 176.304H487.519L503.555 160.267C503.815 160.007 504.237 160.007 504.497 160.267C504.757 160.528 504.757 160.949 504.497 161.209L488.461 177.247C488.143 177.563 487.728 177.721 487.311 177.721" fill="#0A0B0B"/>
<path d="M492.357 79.7867C489.767 79.7867 487.657 81.8948 487.657 84.4854V116.664C487.657 119.253 489.767 121.363 492.357 121.363H500.945C504.647 121.363 507.659 124.375 507.659 128.076V135.711C507.659 137.128 508.741 137.688 509.072 137.824C509.4 137.96 510.563 138.332 511.565 137.329L525.565 123.328C526.813 122.08 528.545 121.363 530.312 121.363H547.533C550.128 121.363 552.236 119.253 552.236 116.664V84.4854C552.236 81.8948 550.128 79.7867 547.533 79.7867H492.357" fill="#E39600"/>
<path d="M505.54 98.7C503.784 98.7 502.356 100.128 502.356 101.884C502.356 103.64 503.784 105.068 505.54 105.068C507.296 105.068 508.724 103.64 508.724 101.884C508.724 100.128 507.296 98.7 505.54 98.7ZM505.54 106.401C503.049 106.401 501.023 104.375 501.023 101.884C501.023 99.3933 503.049 97.3667 505.54 97.3667C508.031 97.3667 510.057 99.3933 510.057 101.884C510.057 104.375 508.031 106.401 505.54 106.401Z" fill="#0A0B0B"/>
<path d="M519.873 98.7C518.117 98.7 516.689 100.128 516.689 101.884C516.689 103.64 518.117 105.068 519.873 105.068C521.629 105.068 523.057 103.64 523.057 101.884C523.057 100.128 521.629 98.7 519.873 98.7ZM519.873 106.401C517.383 106.401 515.356 104.375 515.356 101.884C515.356 99.3933 517.383 97.3667 519.873 97.3667C522.364 97.3667 524.391 99.3933 524.391 101.884C524.391 104.375 522.364 106.401 519.873 106.401Z" fill="#0A0B0B"/>
<path d="M534.044 98.7C532.289 98.7 530.861 100.128 530.861 101.884C530.861 103.64 532.289 105.068 534.044 105.068C535.801 105.068 537.229 103.64 537.229 101.884C537.229 100.128 535.801 98.7 534.044 98.7ZM534.044 106.401C531.553 106.401 529.528 104.375 529.528 101.884C529.528 99.3933 531.553 97.3667 534.044 97.3667C536.535 97.3667 538.563 99.3933 538.563 101.884C538.563 104.375 536.535 106.401 534.044 106.401Z" fill="#0A0B0B"/>
<path d="M122.086 110.464C120.583 110.464 119.36 111.685 119.36 113.188V131.848C119.36 133.351 120.583 134.573 122.086 134.573H132.073C133.098 134.573 134.103 134.989 134.827 135.713L142.944 143.832C143.527 144.413 144.2 144.197 144.391 144.119C144.583 144.04 145.211 143.716 145.211 142.893V138.467C145.211 136.32 146.956 134.573 149.103 134.573H154.084C155.585 134.573 156.808 133.351 156.808 131.848V113.188C156.808 111.685 155.585 110.464 154.084 110.464H122.086Z" fill="#E39600"/>
<path d="M146.439 121.712C145.575 121.712 144.872 122.415 144.872 123.279C144.872 124.141 145.575 124.844 146.439 124.844C147.303 124.844 148.005 124.141 148.005 123.279C148.005 122.415 147.303 121.712 146.439 121.712ZM146.439 126.177C144.84 126.177 143.539 124.877 143.539 123.279C143.539 121.679 144.84 120.379 146.439 120.379C148.037 120.379 149.339 121.679 149.339 123.279C149.339 124.877 148.037 126.177 146.439 126.177Z" fill="#0A0B0B"/>
<path d="M138.127 121.712C137.263 121.712 136.56 122.415 136.56 123.279C136.56 124.141 137.263 124.844 138.127 124.844C138.991 124.844 139.693 124.141 139.693 123.279C139.693 122.415 138.991 121.712 138.127 121.712ZM138.127 126.177C136.528 126.177 135.227 124.877 135.227 123.279C135.227 121.679 136.528 120.379 138.127 120.379C139.725 120.379 141.027 121.679 141.027 123.279C141.027 124.877 139.725 126.177 138.127 126.177Z" fill="#0A0B0B"/>
<path d="M129.909 121.712C129.045 121.712 128.342 122.415 128.342 123.279C128.342 124.141 129.045 124.844 129.909 124.844C130.773 124.844 131.475 124.141 131.475 123.279C131.475 122.415 130.773 121.712 129.909 121.712ZM129.909 126.177C128.31 126.177 127.009 124.877 127.009 123.279C127.009 121.679 128.31 120.379 129.909 120.379C131.508 120.379 132.808 121.679 132.808 123.279C132.808 124.877 131.508 126.177 129.909 126.177Z" fill="#0A0B0B"/>
<path d="M322.912 41.4373C322.912 43.496 321.244 45.1654 319.184 45.1654C317.125 45.1654 315.456 43.496 315.456 41.4373C315.456 39.3773 317.125 37.7094 319.184 37.7094C321.244 37.7094 322.912 39.3773 322.912 41.4373Z" fill="#E39600"/>
<path d="M65.9193 398.827C65.9193 400.885 64.2505 402.555 62.1917 402.555C60.1323 402.555 58.4631 400.885 58.4631 398.827C58.4631 396.767 60.1323 395.097 62.1917 395.097C64.2505 395.097 65.9193 396.767 65.9193 398.827Z" fill="#E39600"/>
<path d="M586.899 410.901C586.899 412.96 585.229 414.629 583.171 414.629C581.112 414.629 579.443 412.96 579.443 410.901C579.443 408.841 581.112 407.172 583.171 407.172C585.229 407.172 586.899 408.841 586.899 410.901Z" fill="#E39600"/>
<path d="M674.112 48.8933C674.112 50.952 672.443 52.6213 670.383 52.6213C668.324 52.6213 666.655 50.952 666.655 48.8933C666.655 46.8333 668.324 45.1653 670.383 45.1653C672.443 45.1653 674.112 46.8333 674.112 48.8933Z" fill="#E39600"/>
<path d="M691.003 139.869C691.003 140.899 690.169 141.733 689.139 141.733C688.109 141.733 687.275 140.899 687.275 139.869C687.275 138.839 688.109 138.005 689.139 138.005C690.169 138.005 691.003 138.839 691.003 139.869Z" fill="#0056D7"/>
<path d="M689.139 138.672C688.479 138.672 687.941 139.209 687.941 139.869C687.941 140.529 688.479 141.067 689.139 141.067C689.8 141.067 690.336 140.529 690.336 139.869C690.336 139.209 689.8 138.672 689.139 138.672ZM689.139 142.4C687.744 142.4 686.608 141.264 686.608 139.869C686.608 138.473 687.744 137.339 689.139 137.339C690.533 137.339 691.669 138.473 691.669 139.869C691.669 141.264 690.533 142.4 689.139 142.4Z" fill="#0056D7"/>
<path d="M172.871 412.764C172.871 413.795 172.036 414.629 171.007 414.629C169.977 414.629 169.143 413.795 169.143 412.764C169.143 411.735 169.977 410.901 171.007 410.901C172.036 410.901 172.871 411.735 172.871 412.764Z" fill="#0056D7"/>
<path d="M171.007 411.568C170.347 411.568 169.809 412.104 169.809 412.764C169.809 413.424 170.347 413.963 171.007 413.963C171.667 413.963 172.204 413.424 172.204 412.764C172.204 412.104 171.667 411.568 171.007 411.568ZM171.007 415.296C169.611 415.296 168.476 414.16 168.476 412.764C168.476 411.369 169.611 410.235 171.007 410.235C172.403 410.235 173.537 411.369 173.537 412.764C173.537 414.16 172.403 415.296 171.007 415.296Z" fill="#0056D7"/>
<path d="M49.1724 84.1881C50.9927 84.1881 52.4688 85.6641 52.4688 87.4827C52.4688 89.3027 50.9927 90.7787 49.1724 90.7787C47.3527 90.7787 45.8771 89.3027 45.8771 87.4827C45.8771 85.6641 47.3527 84.1881 49.1724 84.1881Z" fill="#0056D7"/>
<path d="M49.1724 84.8547C47.7229 84.8547 46.5437 86.0333 46.5437 87.4827C46.5437 88.9333 47.7229 90.112 49.1724 90.112C50.6224 90.112 51.8021 88.9333 51.8021 87.4827C51.8021 86.0333 50.6224 84.8547 49.1724 84.8547ZM49.1724 91.4453C46.9875 91.4453 45.2104 89.668 45.2104 87.4827C45.2104 85.2973 46.9875 83.5214 49.1724 83.5214C51.3573 83.5214 53.1355 85.2973 53.1355 87.4827C53.1355 89.668 51.3573 91.4453 49.1724 91.4453Z" fill="#0056D7"/>
<path d="M209.532 29.2867C210.239 29.2867 210.811 29.86 210.811 30.5654C210.811 31.2707 210.239 31.8427 209.532 31.8427C208.827 31.8427 208.253 31.2707 208.253 30.5654C208.253 29.86 208.827 29.2867 209.532 29.2867Z" fill="#0056D7"/>
<path d="M209.532 29.9533C209.195 29.9533 208.92 30.2281 208.92 30.5654C208.92 30.9027 209.195 31.176 209.532 31.176C209.869 31.176 210.144 30.9027 210.144 30.5654C210.144 30.2281 209.869 29.9533 209.532 29.9533ZM209.532 32.5093C208.46 32.5093 207.587 31.6374 207.587 30.5654C207.587 29.4934 208.46 28.62 209.532 28.62C210.605 28.62 211.477 29.4934 211.477 30.5654C211.477 31.6374 210.605 32.5093 209.532 32.5093Z" fill="#0056D7"/>
<path d="M158.672 77.9214C158.672 78.952 157.837 79.7867 156.808 79.7867C155.779 79.7867 154.944 78.952 154.944 77.9214C154.944 76.8934 155.779 76.0574 156.808 76.0574C157.837 76.0574 158.672 76.8934 158.672 77.9214Z" fill="#0A0B0B"/>
<path d="M47.7412 246.108C47.7412 247.137 46.9063 247.972 45.8771 247.972C44.8473 247.972 44.0131 247.137 44.0131 246.108C44.0131 245.079 44.8473 244.244 45.8771 244.244C46.9063 244.244 47.7412 245.079 47.7412 246.108Z" fill="#0A0B0B"/>
<path d="M532.057 32.5827C532.057 33.6121 531.223 34.4467 530.195 34.4467C529.164 34.4467 528.329 33.6121 528.329 32.5827C528.329 31.5521 529.164 30.7187 530.195 30.7187C531.223 30.7187 532.057 31.5521 532.057 32.5827Z" fill="#0A0B0B"/>
<path d="M692.867 368.269C692.867 369.299 692.032 370.133 691.003 370.133C689.973 370.133 689.139 369.299 689.139 368.269C689.139 367.24 689.973 366.405 691.003 366.405C692.032 366.405 692.867 367.24 692.867 368.269Z" fill="#0A0B0B"/>
<path d="M519.092 648.493C521.087 618.353 511.235 588.489 491.021 563.412L480.127 549.897L469.721 536.989L462.253 527.725L388.312 532.136L314.369 527.725L306.903 536.989L296.499 549.897L285.604 563.412C270.859 581.704 261.627 602.544 258.484 624.18C258.341 625.16 256.664 643.848 254.336 666.667H518.576L519.092 648.493" fill="#0A0B0B"/>
<path d="M290.377 668L290.24 667.993C289.508 667.917 288.975 667.264 289.049 666.531C290.553 651.785 291.777 638.859 292.508 631.135C292.964 626.32 293.151 624.353 293.204 623.988C296.381 602.107 305.857 580.871 320.605 562.575C321.067 562 321.908 561.91 322.479 562.373C323.053 562.836 323.143 563.675 322.68 564.249C308.232 582.173 298.952 602.964 295.843 624.371C295.797 624.685 295.531 627.496 295.163 631.385C294.431 639.114 293.207 652.045 291.701 666.803C291.632 667.488 291.053 668 290.377 668Z" fill="#F7E9D9"/>
<path d="M482.865 253.009C480.984 239.957 474.348 228.597 464.649 219.872C462.417 217.535 460.295 215.433 458.339 213.573C451.548 207.116 442.269 200.656 441.799 191.816C440.171 161.352 392.657 138.084 377.313 151.365C377.148 151.509 374.932 150.493 371.16 149.476C365.559 147.965 356.528 146.456 345.687 148.748C342.131 136.388 330.748 127.344 317.245 127.344C300.897 127.344 287.645 140.596 287.645 156.944C287.645 168.269 294.011 178.107 303.356 183.083C302.927 184.379 302.496 185.691 302.011 187.017C296.197 202.933 286.649 214.459 272.573 226.643L270.663 228.296C244.684 250.783 246.779 288.5 266.692 304.944L272.436 309.736C273.324 310.477 274.239 311.183 275.176 311.857C278.587 314.309 280.363 317.969 279.883 321.856C278.993 329.069 279.549 336.527 281.944 343.999C290.847 371.789 322.532 389.963 356.773 386.688C380.523 384.416 400.575 372.905 412.636 357.04C427.055 338.076 444.6 320.935 462.748 304.381C477.58 290.851 485.637 272.219 482.865 253.009" fill="#0A0B0B"/>
<path d="M442.949 265.308L438.143 212.36L414.645 211.939L413.695 194.595L406.559 211.059L385.865 208.668L381.1 200.469C379.935 198.465 377.899 197.621 375.948 197.777C374.325 216.804 365.303 233.456 356.117 234.94L343.719 232.243L343.736 232.007L339.823 232.093C329.563 232.324 321.357 240.905 321.587 251.165L321.596 251.591C321.825 261.849 330.408 270.056 340.667 269.827L348.277 269.656L345.551 338.055C345.448 356.504 361.981 367.111 379.132 367.205L379.843 367.209C396.991 367.305 411.107 352.288 411.208 333.837L411.343 309.775C431.084 304.88 444.844 286.189 442.949 265.308" fill="#F68779"/>
<path d="M338.241 257.405C337.8 257.405 337.367 257.187 337.113 256.785C336.719 256.164 336.904 255.34 337.525 254.945L342.349 251.885L336.957 245.735C336.472 245.18 336.528 244.339 337.081 243.853C337.632 243.367 338.476 243.421 338.963 243.976L345.38 251.299C345.637 251.591 345.752 251.981 345.697 252.367C345.641 252.752 345.42 253.095 345.092 253.303L338.955 257.197C338.732 257.337 338.485 257.405 338.241 257.405Z" fill="#F25748"/>
<path d="M411.312 310.277C411.312 310.277 374.712 311.788 368.655 298.729C362.599 285.672 368.655 298.729 368.655 298.729C368.655 298.729 366.877 318.593 410.937 329.204L411.312 310.277Z" fill="#F25748"/>
<path d="M337.383 264.965C335.135 264.965 333.229 266.704 333.061 268.977C332.976 270.132 333.345 271.249 334.103 272.125C334.859 273.001 335.912 273.532 337.068 273.617C339.452 273.796 341.535 271.999 341.712 269.616C341.887 267.233 340.089 265.152 337.704 264.976L337.383 264.965ZM337.395 278.963C337.156 278.963 336.916 278.953 336.675 278.936C334.099 278.747 331.751 277.565 330.064 275.611C328.377 273.655 327.552 271.16 327.743 268.585C328.135 263.271 332.765 259.275 338.097 259.657C343.415 260.049 347.421 264.693 347.029 270.008C346.655 275.084 342.405 278.963 337.395 278.963" fill="#F7E9D9"/>
<path d="M436.467 238.083C436.417 240.077 434.759 241.656 432.763 241.607C430.768 241.556 429.191 239.9 429.24 237.904C429.289 235.909 430.947 234.332 432.941 234.38C434.937 234.429 436.515 236.087 436.467 238.083Z" fill="#0A0B0B"/>
<path d="M398.239 238.083C398.189 240.077 396.531 241.656 394.535 241.607C392.54 241.556 390.963 239.9 391.012 237.904C391.061 235.909 392.719 234.332 394.713 234.38C396.709 234.429 398.288 236.087 398.239 238.083Z" fill="#0A0B0B"/>
<path d="M390.76 231.701L390.54 231.703C383.095 231.749 377.277 234.188 377.297 237.252C377.352 246.06 383.317 253.195 390.608 253.195H390.677C398 253.148 403.913 245.921 403.857 237.084V237.085C403.837 234.049 398.101 231.701 390.76 231.701V231.701ZM390.608 257.195C381.123 257.195 373.365 248.283 373.297 237.277C373.256 230.739 381.916 227.757 390.516 227.703C399.121 227.635 407.815 230.52 407.857 237.059V237.06C407.925 248.101 400.231 257.135 390.703 257.195H390.608Z" fill="white"/>
<path d="M432.835 230.883H432.617C425.171 230.929 419.352 233.367 419.371 236.433C419.399 240.775 420.845 244.833 423.444 247.86C425.963 250.793 429.272 252.399 432.752 252.375C436.237 252.353 439.523 250.708 442.003 247.744C444.563 244.684 445.959 240.607 445.931 236.265C445.912 233.229 440.177 230.883 432.835 230.883V230.883ZM432.681 256.375C428.037 256.375 423.684 254.279 420.409 250.467C417.195 246.721 415.405 241.747 415.371 236.457C415.331 229.919 423.991 226.937 432.592 226.883C436.848 226.859 440.881 227.552 443.907 228.844C447.772 230.495 449.912 233.12 449.931 236.24C449.964 241.528 448.239 246.525 445.071 250.311C441.823 254.192 437.457 256.345 432.779 256.375H432.681Z" fill="white"/>
<path d="M410.903 231.731L411.139 243.711C411.168 245.189 412.391 246.363 413.867 246.333L416.528 246.281C418.541 246.241 420.207 247.841 420.247 249.855V249.856C420.345 254.843 416.381 258.967 411.395 259.064L407.229 259.147" fill="#F68779"/>
<path d="M407.229 260.48C406.504 260.48 405.911 259.901 405.896 259.173C405.881 258.437 406.467 257.829 407.203 257.813L411.368 257.731C413.424 257.691 415.341 256.852 416.765 255.369C418.192 253.887 418.955 251.937 418.913 249.883C418.901 249.264 418.649 248.688 418.203 248.259C417.757 247.831 417.176 247.603 416.555 247.615L413.893 247.667C412.78 247.673 411.807 247.291 411.036 246.549C410.264 245.807 409.827 244.808 409.805 243.737L409.569 231.757C409.555 231.021 410.139 230.412 410.876 230.397H410.903C411.628 230.397 412.221 230.976 412.236 231.704L412.472 243.684C412.479 244.044 412.625 244.377 412.884 244.627C413.143 244.875 413.465 245.015 413.841 245L416.503 244.948C417.824 244.923 419.092 245.415 420.052 246.336C421.011 247.259 421.553 248.499 421.58 249.829C421.635 252.597 420.608 255.221 418.689 257.217C416.769 259.213 414.189 260.343 411.42 260.397L407.255 260.48H407.229" fill="#F25748"/>
<path d="M375.137 240.801C374.944 240.801 374.748 240.773 374.553 240.715L346.524 232.193C345.468 231.872 344.871 230.755 345.192 229.697C345.515 228.64 346.629 228.041 347.688 228.365L375.717 236.888C376.773 237.208 377.369 238.325 377.049 239.383C376.787 240.245 375.993 240.801 375.137 240.801" fill="white"/>
<path d="M405.669 242.015C405.041 242.015 404.423 241.72 404.033 241.169C403.399 240.271 403.607 239.029 404.503 238.389C407.113 236.528 413.457 234.128 418.783 238.381C419.645 239.069 419.788 240.328 419.097 241.192C418.411 242.055 417.151 242.196 416.288 241.507C412.009 238.092 407.028 241.504 406.817 241.652C406.469 241.896 406.067 242.015 405.669 242.015" fill="white"/>
<path d="M414.109 291.621C413.948 291.668 413.771 291.66 413.604 291.589C413.437 291.516 409.423 289.844 406.528 293.025C406.251 293.332 405.775 293.355 405.467 293.075C405.157 292.796 405.136 292.32 405.415 292.012C409.049 288.024 414.153 290.188 414.205 290.209C414.584 290.376 414.757 290.817 414.592 291.197C414.5 291.413 414.317 291.563 414.109 291.621Z" fill="#F25748"/>
<path d="M381.671 224.015C383.103 224.305 384.768 223.785 386.407 223.375C388.048 222.927 389.707 222.519 391.161 222.213C392.619 221.908 394.305 221.613 395.987 221.364C397.652 221.08 399.396 220.884 400.571 220.047C401.709 219.255 401.901 217.633 400.029 216.083C398.259 214.56 394.208 213.353 389.384 214.353C384.571 215.376 381.408 218.099 380.453 220.192C379.423 222.353 380.295 223.751 381.671 224.015Z" fill="#0A0B0B"/>
<path d="M441.511 223.401C440.393 223.675 439.067 223.317 437.765 223.045C436.461 222.744 435.144 222.473 433.991 222.28C432.836 222.084 431.501 221.905 430.171 221.761C428.852 221.589 427.475 221.489 426.525 220.867C425.604 220.279 425.404 219.011 426.828 217.732C428.173 216.481 431.32 215.407 435.145 216.044C438.963 216.699 441.533 218.743 442.349 220.359C443.225 222.027 442.584 223.152 441.511 223.401" fill="#0A0B0B"/>
<path d="M406.848 274.236L406.764 274.233L396.361 273.593C392.371 273.348 389.263 270.024 389.285 266.027L389.292 264.607C389.296 263.872 389.892 263.279 390.625 263.279H390.632C391.367 263.281 391.963 263.881 391.959 264.617L391.952 266.039C391.937 268.625 393.947 270.773 396.527 270.932L406.928 271.572C407.663 271.616 408.223 272.249 408.177 272.984C408.135 273.692 407.547 274.236 406.848 274.236" fill="#F25748"/>
<path d="M346.664 395.779L421.635 395.347L422.096 394.185L444.936 336.784C445.039 336.525 445.293 336.363 445.568 336.352L323.009 336.331L346.029 394.185L346.664 395.779" fill="#F68779"/>
<path d="M390.516 389.873L387.537 387.097L396.541 372.521C401.077 365.179 407.597 359.271 415.351 355.479L440.467 343.193C440.943 342.961 441.428 342.752 441.92 342.56L439.824 347.829L418.251 358.38C410.499 362.172 403.977 368.08 399.443 375.421L390.516 389.873" fill="#F46F62"/>
<path d="M379.963 479.465C380.712 481.349 382.363 482.303 384.063 482.412C385.761 482.303 387.415 481.349 388.163 479.465L421.635 395.347L346.664 395.779L379.963 479.465" fill="#E39600"/>
<path d="M558.932 437.877L498.097 366.86C480.569 346.893 472.195 336.969 446.061 336.353L446 336.352C445.868 336.349 445.743 336.343 445.609 336.34L445.568 336.352C445.293 336.363 445.039 336.525 444.936 336.784L422.096 394.185L421.635 395.347L388.163 479.465C387.413 481.349 385.761 482.303 384.063 482.412C382.363 482.303 380.712 481.349 379.963 479.465L346.664 395.779L346.029 394.185L323.009 336.331H323.003C322.788 336.335 322.572 336.337 322.356 336.341L322.2 336.344C298.513 336.755 271.236 346.529 250.467 362.313C229.895 377.948 219.839 403.428 222.971 428.607C223.615 433.792 224.956 438.864 226.689 443.793L228.021 447.581C232.487 460.281 237.508 472.783 243.065 485.043C245.084 489.493 246.673 492.989 246.7 493.019L261.481 495.708C261.765 496.013 262.252 496.003 262.523 495.687L301.72 545.322C301.721 545.615 301.904 545.873 302.177 545.976L332.876 557.279C349.433 563.005 366.748 565.788 384.063 565.643C401.376 565.788 418.692 563.005 435.249 557.279L473.357 542.429C473.684 542.303 473.864 541.953 473.781 541.612C473.781 541.612 506.36 496.009 506.643 495.7L558.915 438.805C559.155 438.544 559.161 438.145 558.932 437.877Z" fill="#0056D7"/>
<path d="M384.057 564.976C401.477 565.141 418.633 562.32 435.031 556.648L473.115 541.808C473.069 541.62 473.127 541.383 473.239 541.224C480.887 530.519 505.864 495.564 506.151 495.251L558.424 438.355L558.932 437.877L558.425 438.311L496.917 366.525C480.025 347.28 471.548 337.62 446.045 337.02L445.677 337.009L445.624 337.016L422.253 395.592L388.783 479.711C388 481.681 386.252 482.939 384.105 483.077C381.875 482.939 380.127 481.681 379.343 479.711L322.56 337.005L322.367 337.008L322.212 337.011C298.637 337.419 271.3 347.319 250.871 362.845C230.916 378.008 220.48 403.176 223.632 428.524C224.221 433.276 225.428 438.197 227.317 443.572L228.651 447.36C233.088 459.98 238.141 472.565 243.673 484.768C246.017 489.94 246.868 491.801 247.156 492.423L261.6 495.052C261.741 495.079 261.871 495.148 261.968 495.253C262.099 495.101 262.328 495.013 262.512 495.02C262.712 495.023 262.923 495.117 263.047 495.273L302.244 544.91C302.335 545.027 302.385 545.171 302.387 545.319L333.107 556.653C349.492 562.32 366.589 565.136 384.057 564.976V564.976ZM382.757 566.315C365.643 566.315 348.793 563.488 332.659 557.909L301.947 546.6C301.499 546.433 301.175 546.045 301.081 545.589L262.355 496.548L262.021 496.596C261.731 496.605 261.424 496.509 261.184 496.332L246.581 493.675C246.443 493.648 246.316 493.581 246.219 493.479C246.105 493.36 246.104 493.359 242.459 485.317C236.912 473.08 231.843 460.46 227.392 447.804L226.06 444.015C224.139 438.549 222.911 433.536 222.308 428.689C219.099 402.869 229.733 377.233 250.063 361.783C270.708 346.095 298.344 336.091 322.189 335.677L322.356 336.341L322.343 335.675L322.991 335.664C323.327 335.691 323.527 335.827 323.629 336.084L380.581 479.219C381.171 480.696 382.487 481.641 384.105 481.747C385.637 481.641 386.956 480.696 387.543 479.219L444.316 336.537C444.503 336.069 444.945 335.744 445.457 335.691L445.669 335.676L446.013 335.685C472.164 336.301 480.771 346.108 497.92 365.645L498.599 366.419L559.439 437.444C559.888 437.969 559.873 438.749 559.407 439.256L507.135 496.151C506.645 496.775 485.637 526.164 474.468 541.798C474.459 542.341 474.124 542.847 473.599 543.051L435.491 557.9C418.925 563.631 401.612 566.468 384.057 566.309C383.624 566.313 383.191 566.315 382.757 566.315" fill="#0056D7"/>
<path d="M461.14 552.927H378.405C373.257 552.927 369.084 548.753 369.084 543.607V432.648C369.084 427.501 373.257 423.328 378.405 423.328H461.14C466.287 423.328 470.46 427.501 470.46 432.648V543.607C470.46 548.753 466.287 552.927 461.14 552.927" fill="#181416"/>
<path d="M435.035 424.697H404.509C402.283 424.697 400.476 422.893 400.476 420.667V417.293C400.476 415.067 402.283 413.26 404.509 413.26H435.035C437.263 413.26 439.068 415.067 439.068 417.293V420.667C439.068 422.893 437.263 424.697 435.035 424.697Z" fill="#F7E9D9"/>
<path d="M404.509 413.927C402.653 413.927 401.143 415.437 401.143 417.293V420.667C401.143 422.523 402.653 424.031 404.509 424.031H435.035C436.891 424.031 438.401 422.523 438.401 420.667V417.293C438.401 415.437 436.891 413.927 435.035 413.927H404.509ZM435.035 425.364H404.509C401.917 425.364 399.809 423.256 399.809 420.667V417.293C399.809 414.701 401.917 412.593 404.509 412.593H435.035C437.627 412.593 439.735 414.701 439.735 417.293V420.667C439.735 423.256 437.627 425.364 435.035 425.364Z" fill="#181416"/>
<path d="M444.519 428.872H395.027C394.319 428.872 393.745 428.299 393.745 427.591V424.788C393.745 424.08 394.319 423.507 395.027 423.507H444.519C445.227 423.507 445.8 424.08 445.8 424.788V427.591C445.8 428.299 445.227 428.872 444.519 428.872Z" fill="#F7E9D9"/>
<path d="M395.027 424.173C394.688 424.173 394.412 424.449 394.412 424.788V427.591C394.412 427.929 394.688 428.205 395.027 428.205H444.519C444.857 428.205 445.133 427.929 445.133 427.591V424.788C445.133 424.449 444.857 424.173 444.519 424.173H395.027ZM444.519 429.539H395.027C393.952 429.539 393.079 428.665 393.079 427.591V424.788C393.079 423.713 393.952 422.84 395.027 422.84H444.519C445.592 422.84 446.467 423.713 446.467 424.788V427.591C446.467 428.665 445.592 429.539 444.519 429.539Z" fill="#181416"/>
<path d="M398.655 508.476C399.391 508.257 400.073 508.072 400.675 507.949C400.087 508.128 399.397 508.297 398.655 508.476ZM391.759 503.38C393.036 508.48 397.705 508.232 402.264 507.08C399.548 508.225 397.532 510.043 398.523 513.415C399.584 519.64 405.511 519.895 410.463 518.511C406.191 521.216 411.625 527.76 418.244 527.664C427.531 528.001 436.737 528.3 446.024 528.82C452.581 529.189 458.792 528.88 464.581 525.688L471.653 525.985L470.165 477.072L458.557 479.224C457.192 478.292 455.804 477.397 454.38 476.591C454.38 476.591 429.815 465.584 420.869 463.463C419.911 463.235 418.925 463.024 417.945 463.131C416.965 463.237 415.975 463.713 415.487 464.569C414.852 465.684 415.208 467.091 415.716 468.269C417.292 471.927 418.688 475.099 420.105 477.885C416.636 478.064 415.685 478.096 411.623 478.227C403.079 479.12 388.808 478.861 390.629 489.969C391.589 493.771 394.697 494.369 397.908 493.939C393.521 495.419 389.576 498.047 391.759 503.38" fill="#F68779"/>
<path d="M417.525 472.415L417.517 472.396C417.52 472.401 417.523 472.408 417.525 472.415Z" fill="#672B29"/>
<path d="M442.385 478.403L420.105 477.885L417.525 472.415C417.523 472.408 417.52 472.401 417.517 472.396C417.573 472.393 417.635 472.391 417.699 472.391C421.728 472.391 442.385 478.403 442.385 478.403" fill="#F57467"/>
<path d="M470.721 534.733L482.029 534.757C483.848 534.761 485.323 533.292 485.327 531.475L485.452 472.888C485.456 471.072 483.985 469.596 482.169 469.592L470.859 469.568C469.041 469.564 467.567 471.033 467.563 472.851L467.437 531.436C467.433 533.253 468.904 534.729 470.721 534.733" fill="#EFEEE5"/>
<path d="M478.032 469.629V535.559C478.032 538.928 481.077 541.481 484.396 540.895L537.139 531.572C577.695 523.561 593.379 473.892 564.775 444.044L559.688 438.736L483.599 462.096C480.291 463.112 478.032 466.168 478.032 469.629" fill="#0056D7"/>
<path d="M491.839 525.768C492.715 527.539 491.988 529.687 490.216 530.561C488.444 531.437 486.299 530.711 485.421 528.94C484.545 527.168 485.272 525.021 487.044 524.145C488.816 523.269 490.963 523.996 491.839 525.768Z" fill="#EFEEE5"/>
<path d="M559.491 439.493L483.795 462.733C480.748 463.669 478.699 466.44 478.699 469.629V535.559C478.699 536.968 479.319 538.295 480.399 539.198C481.476 540.105 482.891 540.486 484.28 540.239L537.023 530.916C555.813 527.203 570.485 514.075 576.256 495.796C582.028 477.519 577.555 458.344 564.293 444.505L559.491 439.493ZM483.447 541.644C482.028 541.644 480.647 541.148 479.541 540.221C478.159 539.063 477.365 537.361 477.365 535.559V469.629C477.365 465.851 479.792 462.568 483.404 461.46L559.492 438.099C559.732 438.023 559.995 438.092 560.169 438.275L565.256 443.584C578.861 457.779 583.448 477.448 577.528 496.196C571.608 514.947 556.557 528.416 537.267 532.225L484.512 541.551C484.157 541.614 483.801 541.644 483.447 541.644" fill="#0056D7"/>
<path d="M410.737 492.019L397.08 494.02Z" fill="#DA5544"/>
<path d="M397.079 494.687C396.752 494.687 396.469 494.448 396.419 494.116C396.365 493.751 396.619 493.413 396.983 493.36L410.64 491.359C410.999 491.313 411.343 491.556 411.397 491.921C411.451 492.287 411.197 492.625 410.833 492.679L397.176 494.68L397.079 494.687Z" fill="#F2575D"/>
<path d="M413.461 504.467L402.264 507.08Z" fill="#DA5544"/>
<path d="M402.264 507.747C401.961 507.747 401.688 507.539 401.615 507.231C401.531 506.872 401.753 506.515 402.113 506.429L413.309 503.816C413.673 503.732 414.027 503.956 414.111 504.315C414.195 504.673 413.972 505.031 413.612 505.116L402.416 507.729L402.264 507.747" fill="#F2575D"/>
<path d="M420.616 516.039L409.864 518.977Z" fill="#DA5544"/>
<path d="M409.864 519.644C409.572 519.644 409.303 519.451 409.221 519.153C409.125 518.799 409.333 518.432 409.689 518.335L420.44 515.396C420.8 515.303 421.163 515.508 421.259 515.863C421.356 516.219 421.147 516.584 420.792 516.683L410.04 519.621L409.864 519.644Z" fill="#F2575D"/>
<path d="M478.032 480.939C477.664 480.939 477.365 480.64 477.365 480.272V470.296C477.365 465.759 480.424 461.765 484.803 460.584L528.527 448.779C528.877 448.683 529.249 448.893 529.343 449.249C529.439 449.604 529.228 449.971 528.872 450.065L485.149 461.869C481.352 462.896 478.699 466.361 478.699 470.296V480.272C478.699 480.64 478.401 480.939 478.032 480.939" fill="#0A0B0B"/>
<path d="M492.209 459.94C491.981 459.94 491.76 459.823 491.636 459.612L475.219 431.833C475.031 431.517 475.137 431.108 475.455 430.92C475.765 430.735 476.179 430.837 476.367 431.156L492.784 458.935C492.972 459.251 492.865 459.66 492.548 459.848L492.209 459.94Z" fill="#0A0B0B"/>
<path d="M385.209 398.465L399.443 375.421C403.977 368.08 410.499 362.171 418.251 358.379L443.367 346.095C446.972 344.332 451.012 343.655 454.995 344.144L503.403 341.387C504.583 341.32 505.411 342.519 504.933 343.599L504.896 343.684C503.655 346.533 500.972 348.496 497.885 348.875L475.139 351.667L476.256 351.769C479.321 352.052 481.949 354.076 483.004 356.968L484.876 362.099L486.469 363.788C488.651 366.104 489.3 369.472 488.135 372.432L476.847 401.101C476.156 402.855 474.12 403.648 472.424 402.825C468.241 400.796 466.22 395.972 467.704 391.565L470.935 381.985L455.349 401.123C452.785 404.271 449.511 406.764 445.793 408.397L433.781 413.677L425.316 437.399L385.209 398.465" fill="#F68779"/>
<path d="M458.432 352.969L474.98 352.241Z" fill="#DA5544"/>
<path d="M475.341 352.968L475.017 353.052L458.468 353.78C458.021 353.799 457.64 353.452 457.621 353.005C457.603 352.557 457.949 352.184 458.396 352.159L474.947 351.429C475.393 351.413 475.772 351.757 475.793 352.205C475.805 352.536 475.619 352.829 475.341 352.968" fill="#F25748"/>
<path d="M464.111 364.267L484.24 362.172Z" fill="#DA5544"/>
<path d="M484.599 362.899L484.324 362.977L464.195 365.073C463.751 365.12 463.352 364.796 463.305 364.352C463.259 363.905 463.58 363.509 464.028 363.461L484.156 361.365C484.6 361.319 485 361.643 485.045 362.087C485.083 362.435 484.895 362.752 484.599 362.899" fill="#F25748"/>
<path d="M473.119 376.473L470.935 381.985Z" fill="#DA5544"/>
<path d="M471.295 382.712C471.096 382.811 470.86 382.827 470.637 382.74C470.221 382.575 470.017 382.104 470.183 381.688L472.364 376.175C472.528 375.76 472.999 375.555 473.416 375.72C473.832 375.885 474.035 376.356 473.871 376.772L471.689 382.285C471.612 382.477 471.469 382.627 471.295 382.712Z" fill="#F25748"/>
<path d="M434.488 435.563L426.143 444.513C424.904 445.843 422.823 445.916 421.493 444.676L376.169 402.421C374.84 401.183 374.767 399.101 376.007 397.772L384.352 388.82C385.589 387.492 387.672 387.419 389 388.657L434.324 430.913C435.653 432.151 435.727 434.233 434.488 435.563" fill="#EFEEE5"/>
<path d="M251.729 503.956C254.084 508.413 257.48 514.301 261.336 520.761C273.327 540.852 296.445 549.545 317.521 544.62C325.193 542.827 332.595 539.229 339.089 533.719C350.135 524.349 361.983 513.947 373.544 503.635C397.587 482.187 420.388 461.127 432.119 450.557C434.665 448.263 434.697 444.279 432.184 441.947L380.587 394.077C378.959 392.565 376.453 392.528 374.779 393.987L312.119 448.643L235.685 463.576C235.685 463.576 245.068 491.349 251.729 503.956" fill="#0056D7"/>
<path d="M236.563 464.084C238.088 468.532 246.356 492.359 252.319 503.644C254.481 507.739 257.708 513.383 261.908 520.42C273.348 539.586 295.636 549.055 317.369 543.971C325.252 542.129 332.415 538.508 338.659 533.211C348.66 524.725 359.927 514.888 373.1 503.137C388.88 489.06 403.948 475.312 416.056 464.264C422.303 458.565 427.64 453.695 431.672 450.063C432.749 449.092 433.372 447.705 433.383 446.257C433.393 444.792 432.805 443.433 431.731 442.435L380.135 394.565C378.752 393.284 376.64 393.248 375.216 394.489L312.556 449.145L312.247 449.297L236.563 464.084ZM305.641 546.661C287.497 546.663 270.389 537.231 260.764 521.103C256.552 514.045 253.313 508.381 251.14 504.267C244.531 491.757 235.148 464.068 235.055 463.789C234.992 463.607 235.012 463.408 235.109 463.241C235.205 463.075 235.369 462.959 235.557 462.921L311.815 448.024L374.34 393.484C376.277 391.797 379.159 391.839 381.04 393.588L432.637 441.459C433.972 442.695 434.729 444.449 434.716 446.268C434.701 448.089 433.917 449.833 432.565 451.052C428.535 454.684 423.199 459.552 416.955 465.251C404.844 476.3 389.773 490.051 373.988 504.132C360.805 515.891 349.531 525.735 339.521 534.227C333.113 539.663 325.763 543.379 317.673 545.269C313.659 546.207 309.624 546.661 305.641 546.661" fill="#0056D7"/>
<path d="M303.109 546.302C301.891 546.302 300.672 546.268 299.452 546.201C299.084 546.183 298.803 545.868 298.823 545.5C298.843 545.132 299.164 544.825 299.525 544.871C317.619 545.852 335.627 539.331 348.897 526.968L368.631 508.584C368.9 508.332 369.321 508.349 369.573 508.617C369.823 508.887 369.808 509.308 369.539 509.56L349.805 527.944C337.168 539.719 320.323 546.302 303.109 546.302Z" fill="#0A0B0B"/>
<path d="M286.499 468.745C286.311 468.745 286.123 468.665 285.991 468.511C285.752 468.229 285.787 467.808 286.067 467.571L353.257 410.393C353.539 410.155 353.96 410.188 354.197 410.469C354.436 410.751 354.403 411.171 354.123 411.409L286.931 468.585C286.805 468.693 286.652 468.745 286.499 468.745" fill="#0A0B0B"/>
<path d="M304.348 453.556C304.117 453.556 303.895 453.437 303.771 453.224L277.3 407.507C277.115 407.188 277.224 406.78 277.543 406.595C277.86 406.409 278.268 406.519 278.453 406.837L304.924 452.555C305.109 452.873 305 453.281 304.681 453.467L304.348 453.556" fill="#0A0B0B"/>
<path d="M417.673 444.255C418.549 446.028 417.823 448.175 416.051 449.049C414.28 449.925 412.133 449.199 411.256 447.428C410.381 445.656 411.108 443.509 412.879 442.635C414.651 441.757 416.799 442.484 417.673 444.255Z" fill="#EFEEE5"/>
<path d="M62.95 165.6V322.815C62.95 346.923 129.029 367.848 225.877 378.319V267.309V221.105C129.029 210.633 62.95 189.709 62.95 165.6Z" fill="#E39600"/>
<path d="M208.883 254.571L208.809 254.567C128.912 245.927 79.2787 228.843 79.2787 209.979C79.2787 209.611 79.5766 209.312 79.9454 209.312C80.314 209.312 80.612 209.611 80.612 209.979C80.612 227.829 130.989 244.811 208.953 253.241C209.319 253.28 209.584 253.609 209.544 253.975C209.507 254.317 209.219 254.571 208.883 254.571Z" fill="#F7E9D9"/>
<path d="M140.317 269.425L140.165 269.408C127.713 266.509 116.909 263.311 108.055 259.904C107.711 259.772 107.541 259.387 107.672 259.043C107.805 258.699 108.192 258.529 108.534 258.66C117.331 262.045 128.075 265.224 140.468 268.109C140.827 268.193 141.049 268.551 140.965 268.909C140.893 269.217 140.62 269.425 140.317 269.425" fill="#F7E9D9"/>
<path d="M208.883 280.504L208.809 280.5C191.76 278.657 175.771 276.388 161.287 273.753C160.924 273.688 160.684 273.34 160.751 272.979C160.816 272.616 161.164 272.376 161.525 272.443C175.977 275.069 191.935 277.335 208.953 279.175C209.319 279.215 209.584 279.544 209.544 279.909C209.507 280.251 209.219 280.504 208.883 280.504Z" fill="#0A0B0B"/>
<path d="M83.6364 321.659L102.04 327.553V301.316L83.6364 294.244V321.659Z" fill="#0A0B0B"/>
<path d="M84.3031 321.172L101.373 326.639V285.717L84.3031 279.159V321.172ZM102.706 328.467L82.9697 322.145V277.217L102.706 284.803V328.467Z" fill="#F7E9D9"/>
<path d="M110.825 329.368L127.895 334.833V313.913L110.825 307.353V329.368ZM129.229 336.661L109.492 330.34V305.412L129.229 312.997V336.661Z" fill="#F7E9D9"/>
<path d="M670.383 165.6V322.815C670.383 342.733 625.28 360.476 554.987 371.949C552.997 372.273 552.616 215.119 554.307 214.845C624.989 203.376 670.383 185.583 670.383 165.6" fill="#E39600"/>
<path d="M621.444 231.208C621.141 231.208 620.868 231.001 620.796 230.696C620.711 230.337 620.932 229.977 621.291 229.893C637.991 225.925 650.508 221.409 658.495 216.468C658.807 216.275 659.219 216.369 659.412 216.684C659.605 216.997 659.509 217.408 659.195 217.601C651.088 222.617 638.439 227.191 621.597 231.191L621.444 231.208Z" fill="#0A0B0B"/>
<path d="M622.399 252.687C622.096 252.687 621.823 252.48 621.751 252.175C621.665 251.816 621.887 251.456 622.245 251.372C638.516 247.507 650.712 243.105 658.495 238.291C658.807 238.096 659.219 238.193 659.412 238.507C659.605 238.82 659.509 239.231 659.195 239.424C651.292 244.315 638.964 248.771 622.552 252.668L622.399 252.687" fill="#F7E9D9"/>
<path d="M246.832 337.72C246.404 337.72 245.972 337.583 245.608 337.301L225.877 322V316.939L248.059 334.139C248.932 334.816 249.091 336.073 248.415 336.945C248.019 337.455 247.428 337.72 246.832 337.72" fill="#515467"/>
<path d="M188.219 339.297L162.343 312.605C161.573 311.812 161.593 310.547 162.387 309.777C162.775 309.401 163.276 309.213 163.777 309.213C164.3 309.213 164.821 309.416 165.215 309.821L188.352 333.688L215.107 308.587L225.877 316.939V322L215.355 313.84L188.219 339.297Z" fill="#533029"/>
<path d="M170.489 311.213C170.489 314.919 167.485 317.924 163.779 317.924C160.073 317.924 157.068 314.919 157.068 311.213C157.068 307.507 160.073 304.503 163.779 304.503C167.485 304.503 170.489 307.507 170.489 311.213Z" fill="#B1BBE4"/>
<path d="M221.941 311.213C221.941 314.919 218.937 317.924 215.231 317.924C211.525 317.924 208.52 314.919 208.52 311.213C208.52 307.507 211.525 304.503 215.231 304.503C218.937 304.503 221.941 307.507 221.941 311.213Z" fill="#B1BBE4"/>
<path d="M194.996 335.72C194.996 339.425 191.991 342.429 188.285 342.429C184.579 342.429 181.575 339.425 181.575 335.72C181.575 332.013 184.579 329.009 188.285 329.009C191.991 329.009 194.996 332.013 194.996 335.72Z" fill="#526ABC"/>
<path d="M253.544 335.72C253.544 339.425 250.539 342.429 246.833 342.429C243.128 342.429 240.123 339.425 240.123 335.72C240.123 332.013 243.128 329.009 246.833 329.009C250.539 329.009 253.544 332.013 253.544 335.72Z" fill="#526ABC"/>
<path d="M519.659 334.376H508.84V257.441H519.659V334.376" fill="#0056D7"/>
<path d="M509.507 333.709H518.992V258.108H509.507V333.709ZM520.325 335.043H508.173V256.775H520.325V335.043" fill="#0056D7"/>
<path d="M530.139 333.709H539.624V237.271H530.139V333.709ZM540.957 335.043H528.805V235.937H540.957V335.043Z" fill="#0A0B0B"/>
<path d="M573.019 333.709H582.504V237.271H573.019V333.709ZM583.837 335.043H571.685V235.937H583.837V335.043Z" fill="#0A0B0B"/>
<path d="M592.387 334.376H603.205V221.777H592.387V334.376Z" fill="#F9AF78"/>
<path d="M603.205 334.376H592.387V260.847H603.205V334.376" fill="#0056D7"/>
<path d="M593.053 333.709H602.539V261.513H593.053V333.709ZM603.872 335.041H591.72V260.18H603.872V335.041Z" fill="#0056D7"/>
<path d="M562.335 334.376H551.516V265.455H562.335V334.376Z" fill="#0056D7"/>
<path d="M552.183 333.709H561.668V266.121H552.183V333.709ZM563.001 335.041H550.849V264.788H563.001V335.041Z" fill="#0056D7"/>
</svg>
